<svg id="Layer_1" xmlns="http://www.w3.org/2000/svg" viewBox="-396.4 261.8 131 37.4"><style>.st0{fill:#ffc600}.st1{fill:#fff}</style><path class="st0" d="M-396.4 289.5l.2-1.1c1.4-.3 2.3-.6 2.7-.9.5-.3.9-.9 1.3-1.8s.9-2.7 1.5-5.4c.8-3.6 1.6-6.2 2.3-7.7 1.1-2.4 2.4-4.1 3.9-5.3 1.6-1.1 3.2-1.7 4.8-1.7 1 0 1.9.3 2.6.8s1.1 1.1 1.1 1.6c0 .3-.1.6-.3.8-.2.2-.5.3-.8.3-.4 0-.9-.3-1.4-.8-.6-.5-1.1-.9-1.5-1.1-.3-.2-.7-.3-1-.3-.4 0-.7.1-1.1.3-.5.3-1.1.8-1.6 1.6s-1.2 2-1.8 3.6c-.4 1.1-.9 2.8-1.5 5.3-1 3.9-1.7 6.5-2.2 7.8-.4.9-.8 1.7-1.3 2.3 1.9-.4 3.3-.6 4.5-.6.7 0 1.3 0 1.9.1.6.1 1.6.3 3.1.6 1.3.3 2.1.4 2.7.4.5 0 .9-.2 1.3-.5.3-.3.5-.7.5-1 0-.2-.1-.6-.3-1-.2-.4-.3-.8-.3-1 0-.4.1-.6.3-.8.2-.2.5-.3.8-.3.4 0 .7.2 1 .5s.4.8.4 1.4c0 1.1-.5 2.1-1.4 2.9s-2.2 1.2-3.8 1.2c-.8 0-1.8-.1-3.1-.2-4.2-.4-7-.6-8.3-.6-2 .3-3.7.4-5.2.6zm43.4-17c-.3.6-.5 1.1-.7 1.7s-.5 1.6-.9 3.3c-.7 2.8-1.2 4.7-1.7 5.7-.6 1.4-1.6 2.6-2.8 3.8 1.2 1.4 2.2 2.2 2.9 2.6.7.4 1.4.6 2.1.6.8 0 1.4-.2 1.9-.6.5-.4.8-.9.8-1.4 0-.2-.1-.4-.2-.7s-.2-.6-.2-.8c0-.3.1-.5.2-.7s.4-.3.6-.3c.3 0 .5.1.7.3.2.2.3.5.3.9 0 1.2-.5 2.2-1.4 3.1-.9.9-2.1 1.3-3.3 1.3-.6 0-1.1-.1-1.7-.3-.6-.2-1.1-.5-1.6-.9-.3-.3-1-1-2.1-2.2-1.6 1.2-3.2 1.8-5 1.8-1.9 0-3.5-.6-4.8-1.8-1.3-1.2-1.9-2.8-1.9-4.6 0-1.8.6-3.3 1.8-4.5 1.2-1.2 2.7-1.8 4.4-1.8.9 0 1.6.2 2.1.5s.7.8.7 1.3c0 1.1-1 1.9-3 2.4.9.3 1.7.8 2.5 1.4 1 .8 2.2 2 3.5 3.6.4-.5.8-1 1-1.4.2-.4.5-1.1.8-1.8.2-.5.5-1.5.8-3 .4-1.4.6-2.3.7-2.8.3-.9.6-1.7 1-2.5.3-.7.7-1.4 1.2-2.1-1.8 0-3 .2-3.7.5-1 .5-1.5 1.1-1.5 2 0 .3.1.7.2 1.4 0 .2.1.4.1.6 0 .2-.1.4-.2.6s-.3.2-.6.2-.5-.1-.7-.4-.3-.6-.3-1c0-.9.3-1.8.9-2.7.6-.9 1.3-1.5 2.2-1.9.9-.4 2.2-.6 4-.6h.8c.8 0 1.3.1 1.4.1.4 0 .7-.1.9-.2s.3-.4.3-.6c0-.1 0-.3-.1-.5s-.1-.4-.1-.5c0-.3.1-.5.2-.6s.4-.2.6-.2.5.1.6.3.3.5.3.8c0 .7-.3 1.3-1 1.9-.8.6-1.6.6-3 .7zm-15.2 7.9c1.4 0 2.3-.1 2.8-.4s.7-.7.7-1.1c0-.3-.1-.6-.4-.8s-.6-.3-1-.3c-1 0-1.8.4-2.6 1.3s-1.2 1.8-1.2 3c0 .9.3 1.8.9 2.7.6.9 1.4 1.7 2.3 2.2s2 .8 3 .8 2-.3 3-.9c-1.6-2-2.6-3.1-2.9-3.4-.6-.5-1.2-1-1.9-1.5s-1.7-.9-2.8-1.4v-.2h.1z"/><path class="st1" d="M-349.8 289.5l.2-1.1c1.4-.3 2.3-.6 2.7-.9.5-.3.9-.9 1.3-1.8s.9-2.7 1.5-5.4c.8-3.6 1.6-6.2 2.3-7.7 1.1-2.4 2.4-4.1 3.9-5.3 1.6-1.1 3.2-1.7 4.8-1.7 1 0 1.9.3 2.6.8s1.1 1.1 1.1 1.6c0 .3-.1.6-.3.8-.2.2-.5.3-.8.3-.4 0-.9-.3-1.4-.8-.6-.5-1.1-.9-1.5-1.1-.3-.2-.7-.3-1-.3-.4 0-.7.1-1.1.3-.5.3-1.1.8-1.6 1.6s-1.2 2-1.8 3.6c-.4 1.1-.9 2.8-1.5 5.3-1 3.9-1.7 6.5-2.2 7.8-.4.9-.8 1.7-1.3 2.3 1.9-.4 3.3-.6 4.5-.6.7 0 1.3 0 1.9.1.6.1 1.6.3 3.1.6 1.3.3 2.1.4 2.7.4.5 0 .9-.2 1.3-.5.3-.3.5-.7.5-1 0-.2-.1-.6-.3-1-.2-.4-.3-.8-.3-1 0-.4.1-.6.3-.8.2-.2.5-.3.8-.3.4 0 .7.2 1 .5s.4.8.4 1.4c0 1.1-.5 2.1-1.4 2.9s-2.2 1.2-3.8 1.2c-.8 0-1.8-.1-3.1-.2-4.2-.4-7-.6-8.3-.6-2 .3-3.7.4-5.2.6zm37.9-16.3h2.8l-1.8 6.8c-1.1 4-1.6 6.2-1.6 6.8 0 .2.1.4.2.6.1.1.2.2.4.2s.5-.1.8-.3c.4-.3 1.2-1.1 2.4-2.3l.6.7c-2.6 2.7-4.5 4.1-5.8 4.1-.4 0-.8-.2-1.1-.5s-.4-.8-.4-1.4c0-.7.1-1.6.4-2.7-1.2 1.3-2.6 2.5-4.3 3.5-1.1.7-2.1 1-2.9 1-.5 0-.8-.2-1.1-.4-.3-.3-.4-.8-.4-1.4 0-.5.1-1.1.2-1.6.2-.8.6-2.5 1.3-4.9.9-3.1 1.3-5 1.3-5.7 0-.4-.1-.5-.4-.5-.2 0-.6.1-1 .4-.4.2-1.1.8-2.1 1.7l-.9-.7c1.7-1.6 3.1-2.6 4-3.1s1.7-.7 2.2-.7c.3 0 .6.1.8.3.2.2.3.6.3 1.1 0 .9-.5 3.1-1.4 6.6-.8 3.2-1.3 5-1.3 5.4 0 .3.1.5.3.7.2.2.4.3.6.3.7 0 1.8-.6 3.1-1.8 1.3-1.2 2.2-2.6 2.6-4.1l2.2-8.1zm11.1 3c1.1-1.2 2.1-2 3.1-2.5s1.9-.8 2.7-.8c.9 0 1.6.4 2.2 1.1.5.7.8 1.8.8 3.3 0 2.1-.5 4.2-1.5 6.3-1 2-2.2 3.6-3.7 4.7s-2.9 1.6-4.3 1.6c-1.2 0-2.2-.4-2.9-1.1-.7-.7-1.1-1.6-1.1-2.7 0-.9.2-2.1.5-3.8l2.3-10.3c.6-2.5 1.3-4.4 2.1-5.8.8-1.3 2-2.4 3.3-3.2 1.4-.8 2.7-1.2 3.9-1.2.7 0 1.3.1 1.6.4.3.3.5.6.5 1s-.2.7-.5 1-.8.4-1.3.4c-.4 0-1.2-.1-2.2-.3-.5-.1-.9-.1-1.3-.1-.7 0-1.2.4-1.6 1.1-.3.5-.7 1.9-1.2 4.2l-1.4 6.7zm3.9-1.2c-.6 0-1.4.4-2.3 1.2s-1.7 2.1-2.5 4.1c-.8 1.9-1.2 3.9-1.2 5.7 0 .7.2 1.3.7 1.8.4.5 1 .7 1.6.7 1.4 0 2.7-1.1 3.9-3.4s1.7-4.6 1.7-6.8c0-1-.2-1.9-.6-2.5-.4-.6-.8-.8-1.3-.8zm7.6 2.3l-.9-.7c1.3-1.4 2.5-2.5 3.6-3.1 1.1-.6 2-.9 2.7-.9.4 0 .7.1 1 .3.2.2.3.4.3.7 0 .4-.4 2-1.3 4.8-1.4 4.6-2.1 7.4-2.1 8.4 0 .2 0 .3.1.5.1.1.2.2.3.2.4 0 1.5-.8 3.2-2.4l.8.7c-1.8 1.7-3.1 2.8-3.9 3.2s-1.5.7-2 .7-.8-.1-1.1-.4c-.3-.3-.4-.7-.4-1.2 0-1.6 1-5.6 2.9-11.9.1-.3.1-.6.1-.8 0-.3-.1-.4-.4-.4s-.6.1-.9.3c-.1.2-.8.9-2 2zm7.7-13c.4 0 .7.1 1 .4.3.3.4.6.4 1 0 .6-.2 1.1-.6 1.5s-.8.7-1.3.7c-.4 0-.7-.1-1-.4-.3-.3-.4-.6-.4-1.1 0-.6.2-1.1.6-1.5.3-.4.8-.6 1.3-.6z"/><path class="st1" d="M-280.4 276.7l-.6-.9 1.4-1c1.4-1 2.4-1.6 3-1.9.3-.2.6-.2.9-.2s.5.2.8.5c1.1 1.4 2.1 3.4 2.9 5.8s1.2 4.8 1.2 7.1v1.4c2.2-4.1 3.3-7.3 3.3-9.7 0-.5-.1-1.2-.3-2-.2-.9-.4-1.6-.4-2s.1-.7.4-.9c.2-.2.5-.4.9-.4.5 0 .8.2 1.1.5.3.4.4.9.4 1.5 0 1.7-.4 3.8-1.2 6.3-.8 2.5-2 5.2-3.6 8.1-1.6 2.9-3.2 5-4.5 6.4-1.4 1.4-2.7 2.4-3.9 3-1.2.6-2.5.9-3.6.9-.9 0-1.5-.2-1.9-.5s-.7-.7-.7-1.1c0-.4.2-.7.5-1s.8-.4 1.4-.4c.4 0 1 .1 1.8.3s1.4.3 1.7.3c.8 0 1.6-.3 2.5-1 1.2-.9 2.2-2 2.9-3.3.7-1.3 1.1-2.5 1.1-3.8 0-1.8-.3-4-.8-6.5s-1.3-4.5-2.2-5.8c-.5-.7-1-1-1.5-1-.9 0-1.8.5-3 1.3z"/></svg>